<svg id="Capa_1" enable-background="new 0 0 512 512" height="512" viewBox="0 0 512 512" width="512" xmlns="http://www.w3.org/2000/svg"><g><g><path clip-rule="evenodd" d="m133.974 405.822h203.348c-36.849-28.601-53.657-56.834-44.247-112.221h75.88 31.265c1.389-10.204 2.098-20.693 2.098-31.379 0-6.576-.255-13.067-.794-19.474-2.976-35.546-13.946-68.172-30.669-95.157-6.009-9.723-12.784-18.708-20.182-26.815h-207.345c-31.69 34.78-51.617 85.264-51.617 141.446 0 10.516.68 20.806 2.013 30.84 2.466 18.34 7.058 35.801 13.464 51.986 13.691-8.646 30.216-14.853 43.963-13.776 7.455 21.543-2.353 55.558-14.796 71.687-.765 1.021-1.559 1.956-2.381 2.863z" fill="#ffe6b4" fill-rule="evenodd"/></g><g><path clip-rule="evenodd" d="m81.479 405.822h52.495c.822-.907 1.616-1.842 2.381-2.863 12.444-16.129 22.251-50.144 14.796-71.687-13.747-1.077-30.273 5.131-43.963 13.776-5.782 3.657-11.055 7.738-15.391 11.877-2.381 2.296-4.479 4.62-6.236 6.888-11.197 14.514-9.723 31.436-4.082 42.009z" fill="#e0ef9b" fill-rule="evenodd"/></g><g><path clip-rule="evenodd" d="m47.238 402.959c.794 1.02 1.587 1.956 2.409 2.863h31.832c-5.641-10.573-7.115-27.496 4.082-42.009 1.757-2.268 3.855-4.592 6.236-6.888-14.598-13.975-39.768-27.155-59.326-25.653-7.484 21.543 2.323 55.559 14.767 71.687z" fill="#cbe558" fill-rule="evenodd"/></g><g><path clip-rule="evenodd" d="m337.322 405.822h63.266c17.801-13.833 30.925-27.552 38.663-44.305 8.305-17.915 10.459-39.287 5.584-67.917h-44.615-31.265-75.88c-9.41 55.389 7.399 83.621 44.247 112.222z" fill="#ccf5fc" fill-rule="evenodd"/></g><g><path clip-rule="evenodd" d="m401.524 242.748 66.696-95.157h-97.366c16.724 26.985 27.694 59.611 30.67 95.157z" fill="#ffcd69" fill-rule="evenodd"/></g><g><path clip-rule="evenodd" d="m143.328 120.776h207.345.028v-26.107c0-14.371-11.763-26.135-26.106-26.135h-46.571-62.019-46.571c-14.371 0-26.106 11.764-26.106 26.135z" fill="#ffcd69" fill-rule="evenodd"/></g><g><path clip-rule="evenodd" d="m216.005 68.534h62.019v-27.524c0-17.008-13.889-30.954-30.868-31.01h-.142-.142c-16.979.057-30.868 14.003-30.868 31.01v27.524z" fill="#ffe6b4" fill-rule="evenodd"/></g><g><path clip-rule="evenodd" d="m42.363 455.739h103.46 220.327 103.488 22.733c5.244 0 9.552-4.28 9.552-9.553v-30.84c0-5.244-4.308-9.524-9.552-9.524h-91.782-63.266-203.349-52.495-31.832-30.017c-5.272 0-9.552 4.28-9.552 9.524v30.84c0 5.272 4.28 9.553 9.552 9.553z" fill="#ffcd69" fill-rule="evenodd"/></g><g><path clip-rule="evenodd" d="m42.363 455.739h103.46v46.261h-103.46z" fill="#ffe6b4" fill-rule="evenodd"/></g><g><path clip-rule="evenodd" d="m366.149 455.739h103.488v46.261h-103.488z" fill="#ffe6b4" fill-rule="evenodd"/></g><g><path d="m134.853 272.222c5.523 0 10-4.477 10-10 0-34.367 9.721-67.248 27.373-92.587 3.157-4.532 2.042-10.765-2.49-13.921-4.531-3.155-10.764-2.042-13.921 2.49-19.966 28.662-30.961 65.603-30.961 104.019-.001 5.522 4.476 9.999 9.999 9.999z"/><path d="m492.37 395.822h-65.332c7.777-7.972 13.778-15.929 18.374-24.305h19.351c24.238 0 43.958-19.72 43.958-43.958s-19.719-43.958-43.958-43.958h-19.927-33.448c.615-7.058.931-14.211.931-21.379 0-5.568-.201-11.112-.582-16.62l64.673-92.271c2.141-3.054 2.404-7.046.682-10.355-1.721-3.309-5.141-5.385-8.871-5.385h-91.916c-4.773-7.258-9.982-14.139-15.603-20.581v-22.341c0-19.925-16.197-36.135-36.106-36.135h-36.571v-17.524c0-22.613-18.397-41.01-41.01-41.01s-41.01 18.397-41.01 41.01v17.524h-36.571c-19.909 0-36.106 16.21-36.106 36.135v16.106h-30.59c-49.558 0-89.876 40.319-89.876 89.879v13.039c0 22.155 8.208 43.472 23.112 60.024 13.016 14.456 30.176 24.239 48.943 28.055 2.227 13.495 5.624 26.646 10.149 39.385-1.124.827-2.229 1.665-3.3 2.518-16.07-12.739-39.52-23.955-60.06-22.374-3.966.305-7.375 2.932-8.68 6.689-6.891 19.839-1.76 47.672 8.194 67.831h-11.59c-10.781 0-19.552 8.759-19.552 19.524v30.84c0 10.781 8.771 19.552 19.552 19.552h12.733v36.263c0 5.523 4.477 10 10 10h103.459c5.523 0 10-4.477 10-10v-36.261h200.327v36.261c0 5.523 4.477 10 10 10h103.488c5.523 0 10-4.477 10-10v-36.261h12.733c10.781 0 19.552-8.771 19.552-19.552v-30.84c0-10.766-8.771-19.525-19.552-19.525zm-36.026-92.221h8.418c13.21 0 23.958 10.748 23.958 23.958 0 13.211-10.747 23.958-23.958 23.958h-11.205c3.935-14.078 4.838-29.727 2.787-47.916zm-20.131 0c5.768 45.798-9.426 68.607-39.087 92.221h-56.343c-29.661-23.615-44.854-46.424-39.086-92.221h98.521c.005 0 .01.001.014.001.007 0 .014-.001.021-.001zm12.787-146.01-41.124 58.673c-4.053-20.731-10.813-40.549-19.994-58.673zm-222.995-116.581c0-11.585 9.425-21.01 21.01-21.01s21.01 9.425 21.01 21.01v17.524h-42.02zm-78.181 89.766h54.291c5.523 0 10-4.477 10-10s-4.477-10-10-10h-48.788v-16.107c0-8.897 7.225-16.135 16.106-16.135h155.161c8.881 0 16.106 7.238 16.106 16.135v16.106h-48.788c-5.523 0-10 4.477-10 10s4.477 10 10 10h54.266c29.371 33.993 46.139 81.622 46.139 131.446 0 7.181-.345 14.339-1.015 21.379h-98.227c-4.876 0-9.042 3.518-9.859 8.325-4.938 29.062-3.202 51.883 5.464 71.817 4.917 11.311 12.049 21.681 22.193 32.079h-158.493c9.944-20.136 15.09-47.971 8.221-67.82-1.302-3.762-4.711-6.394-8.681-6.7-12.403-.959-26.448 2.882-39.364 9.233-4.105-12.345-7.063-25.114-8.837-38.227-.028-.372-.071-.74-.139-1.102-1.235-9.497-1.869-19.167-1.869-28.985 0-49.811 16.759-97.439 46.113-131.444zm-66.113 131.446c0 6.161.237 12.269.685 18.323-28.963-8.783-49.535-35.606-49.535-66.851v-13.039c0-38.531 31.347-69.879 69.876-69.879h19.674c-26.048 36.2-40.7 82.95-40.7 131.446zm11.772 107.694c9.768-12.682 32.009-26.317 49.817-28.47 2.369 17.306-4.707 41.432-14.098 54.377h-40.992c-2.039-7.334-1.559-17.051 5.273-25.907zm-53.173-28.456c12.128 1.505 26.334 8.394 37.163 16.475-9.62 12.606-11.506 26.385-9.661 37.887h-13.422c-9.392-12.947-16.46-37.066-14.08-54.362zm95.512 150.54h-83.459v-26.261h83.459zm323.815 0h-83.488v-26.261h83.488zm32.285-46.261h-471.844v-29.917h471.845v29.917z"/><path d="m247.015 130.776h.057c5.523 0 9.972-4.477 9.972-10s-4.505-10-10.028-10-10 4.477-10 10 4.476 10 9.999 10z"/></g></g></svg>